<svg xmlns="http://www.w3.org/2000/svg" xmlns:xlink="http://www.w3.org/1999/xlink" version="1.1" x="0px" y="0px" width="98.043px" height="24.591px" viewBox="0 0 98.043 24.591" enable-background="new 0 0 98.043 24.591" xml:space="preserve"><style>.style0{fill:	#FFFFFF;}</style><g></g><g><g><g><path d="M5.012 22.696c-1.31 0-1.764-0.227-1.764-0.803c0-0.733 0.297-1.048 1.712-1.048h1.484 c1.851 0 2 0.2 2 0.907c0 0.595-0.209 0.943-2.515 0.943H5.012z M0 22.261c0 2.1 1.3 2.5 3.4 2.531h2.288 c1.676 0 2.025-0.191 2.951-1.151v1.013h3.178v-5.851c0-2.097-1.222-3.196-3.527-3.196H4.348c-2.829 0-4.016 0.402-4.016 2.8 H3.58c0.035-0.629 0.314-0.716 1.292-0.716h1.974c1.309 0 1.6 0.3 1.6 1.188v0.786c-0.647-0.663-1.66-0.717-3.494-0.717 C1.676 19 0 19.1 0 21.526V22.261z" class="style0"/><path d="M12.807 19.711c0-3.371 1.677-4.104 4.121-4.104h3.773c2.48 0 4 0.9 4 2.951v0.805h-3.248 c0-0.909-0.472-1.24-1.939-1.24h-1.292c-1.397 0-2.061 0.383-2.061 1.362v1.187c0 1.2 0.7 1.5 1.8 1.502h1.712 c0.943 0 1.799-0.209 1.799-1.03v-0.21H24.7v0.786c0 2.393-1.991 3.074-3.912 3.074h-3.423c-2.217 0-4.558-0.42-4.558-4.228 V19.711z" class="style0"/><path d="M27.215 18.156h-1.677v-2.409h1.677v-2.096h3.353v2.096h5.205v2.409h-5.205v3.423 c0 0.7 0.5 0.8 1.3 0.804c1.083 0 1.38-0.245 1.38-1.065v-0.595h2.934v1.083c0 1.694-1.118 2.986-3.79 2.986h-1.327 c-2.06 0-3.842-0.646-3.842-3.107V18.156z" class="style0"/><path d="M45.277 19.781c0-1.275 0.75-1.66 2.288-1.66h0.803c2.165 0 2.6 0.3 2.6 1.467v1.223 c0 1.188-0.421 1.468-2.585 1.468h-0.803c-1.538 0-2.288-0.385-2.288-1.659V19.781z M41.924 21.3 c0 2.9 2 3.5 3.7 3.527h5.011c1.712 0 3.686-0.593 3.686-3.527v-2.131c0-2.933-1.974-3.527-3.686-3.527h-5.011 c-1.712 0-3.685 0.595-3.685 3.527V21.265z" class="style0"/><path d="M55.521 15.746h3.354v1.434h0.035c0.594-1.24 1.763-1.573 3.562-1.573c2.078 0 5 0.1 5 3.9 v5.116h-3.354v-5.116c0-0.873-0.697-1.31-2.165-1.31h-0.769c-1.432 0-2.287 0.663-2.287 1.938v4.488h-3.354V15.746z" class="style0"/><path d="M73.515 22.696c-1.309 0-1.763-0.227-1.763-0.803c0-0.733 0.296-1.048 1.712-1.048h1.484 c1.852 0 2 0.2 2 0.907c0 0.595-0.21 0.943-2.516 0.943H73.515z M68.503 22.261c0 2.1 1.3 2.5 3.4 2.531h2.286 c1.678 0 2.027-0.191 2.951-1.151v1.013h3.18v-5.851c0-2.097-1.223-3.196-3.528-3.196h-3.896c-2.827 0-4.014 0.402-4.014 2.8 h3.247c0.034-0.629 0.314-0.716 1.292-0.716h1.973c1.311 0 1.6 0.3 1.6 1.188v0.786c-0.646-0.663-1.658-0.717-3.492-0.717 c-3.248 0-4.926 0.141-4.926 2.567V22.261z" class="style0"/></g><path d="M84.827 24.652h-3.354v-8.906h3.354V24.652z M84.827 14.629h-3.354v-2.62h3.354V14.629z" class="style0"/><g><path d="M89.138 19.676c0-0.995 0.155-1.555 1.762-1.555h1.974c1.328 0 2 0.3 2 1.642v0.873 c0 1.345-0.698 1.642-2.026 1.642h-1.974c-1.606 0-1.762-0.559-1.762-1.554V19.676z M85.888 21 c0 2.3 0.5 3.8 4.8 3.79h0.979c2.025 0 2.864-0.682 3.23-1.781h0.035v1.641h3.144V12.01h-3.354v5.378h-0.033 c-0.209-1.397-1.624-1.781-3.004-1.781h-0.996c-4.243 0-4.768 1.52-4.768 3.79V21.003z" class="style0"/></g><rect x="37.4" y="15.7" width="3.3" height="5.2" class="style0"/><rect x="37.4" y="22" width="3.3" height="2.6" class="style0"/><g><path d="M97.884 6.096c0.105-0.109 0.16-0.24 0.16-0.395s-0.055-0.285-0.16-0.395 c-0.106-0.109-0.236-0.164-0.391-0.164s-0.283 0.055-0.39 0.164c-0.107 0.109-0.16 0.24-0.16 0.395s0.053 0.3 0.2 0.4 c0.106 0.1 0.2 0.2 0.4 0.164S97.777 6.2 97.9 6.1 M93.761 3.032c0.16 0.2 0.2 0.5 0.2 0.9 c0 0.373-0.082 0.671-0.244 0.896s-0.375 0.337-0.635 0.337c-0.236 0-0.424-0.104-0.562-0.311s-0.209-0.49-0.209-0.851V3.857 c0.019-0.355 0.097-0.635 0.236-0.842c0.139-0.207 0.317-0.312 0.535-0.312C93.388 2.7 93.6 2.8 93.8 3 M91.451 2.227c-0.345 0.425-0.519 0.983-0.519 1.675c0 0.7 0.2 1.2 0.5 1.688c0.353 0.4 0.8 0.7 1.3 0.7 c0.615 0 1.076-0.264 1.383-0.789v0.327c0 0.2 0.1 0.3 0.3 0.32c0.012 0 0.092-0.009 0.238-0.027 c0.102-0.012 0.229-0.018 0.383-0.018c0.129 0 0.2 0 0.3 0.018l0.31 0.054h0.054c0.147 0 0.266-0.059 0.354-0.173 c0.09-0.115 0.134-0.265 0.134-0.447c0-0.302-0.127-0.453-0.381-0.453c-0.06 0-0.106 0.009-0.142 0 c-0.054 0.024-0.098 0.037-0.134 0.037c-0.112 0-0.168-0.151-0.168-0.454V0.624c0-0.185-0.028-0.311-0.085-0.379 c-0.056-0.067-0.158-0.103-0.305-0.103c-0.071 0-0.182 0.008-0.328 0.021c-0.148 0.016-0.262 0.023-0.337 0 c-0.083 0-0.243-0.012-0.479-0.036c-0.059-0.006-0.154-0.009-0.283-0.009c-0.402 0-0.604 0.19-0.604 0.6 c0 0.1 0 0.3 0.1 0.358c0.075 0.1 0.2 0.1 0.3 0.143c0.078 0 0.154-0.014 0.231-0.041 c0.106-0.014 0.177-0.021 0.214-0.021c0.146 0 0.2 0.1 0.2 0.319V2.11c-0.379-0.348-0.793-0.523-1.241-0.523 C92.251 1.6 91.8 1.8 91.5 2.2 M89.062 3.893c0 0.851-0.275 1.276-0.824 1.276c-0.271 0-0.482-0.111-0.634-0.337 c-0.151-0.224-0.226-0.538-0.226-0.939c0-0.396 0.074-0.707 0.226-0.936c0.151-0.227 0.356-0.341 0.616-0.341 C88.78 2.6 89.1 3 89.1 3.9 M89.899 5.621c0.393-0.425 0.59-1.016 0.59-1.772c0-0.722-0.203-1.288-0.607-1.702 c-0.406-0.414-0.959-0.621-1.662-0.621c-0.715 0-1.271 0.209-1.668 0.625c-0.396 0.417-0.594 0.998-0.594 1.7 c0 0.8 0.2 1.3 0.6 1.747c0.398 0.4 1 0.6 1.7 0.62C88.958 6.3 89.5 6 89.9 5.6 M84.087 3.9 c0 0.851-0.274 1.276-0.824 1.276c-0.271 0-0.483-0.111-0.633-0.337c-0.151-0.224-0.227-0.538-0.227-0.939 c0-0.396 0.075-0.707 0.227-0.936c0.149-0.227 0.355-0.341 0.615-0.341C83.806 2.6 84.1 3 84.1 3.9 M84.925 5.6 c0.394-0.425 0.59-1.016 0.59-1.772c0-0.722-0.202-1.288-0.607-1.702c-0.404-0.414-0.959-0.621-1.662-0.621 c-0.715 0-1.271 0.209-1.667 0.625c-0.396 0.417-0.594 0.998-0.594 1.742c0 0.8 0.2 1.3 0.6 1.747s0.965 0.6 1.7 0.6 C83.984 6.3 84.5 6 84.9 5.6 M78.537 5.977h0.24c0.461 0 0.7 0.1 0.7 0.381c0 0.312-0.352 0.47-1.055 0.5 c-0.697 0-1.046-0.157-1.046-0.47c0-0.166 0.134-0.302 0.399-0.408c0.213 0 0.4 0 0.5 0.027H78.537z M78.888 2.6 c0.109 0.1 0.2 0.3 0.2 0.423c0 0.162-0.055 0.301-0.164 0.415s-0.246 0.17-0.412 0.17c-0.165 0-0.303-0.056-0.412-0.17 s-0.164-0.255-0.164-0.423s0.055-0.309 0.164-0.419c0.109-0.111 0.247-0.167 0.412-0.167C78.642 2.4 78.8 2.5 78.9 2.6 M77.079 1.946c-0.357 0.281-0.535 0.628-0.535 1.042c0 0.3 0.1 0.5 0.3 0.78c-0.27 0.119-0.456 0.244-0.561 0.4 c-0.105 0.133-0.157 0.314-0.157 0.545c0 0.4 0.2 0.7 0.7 0.807c-0.598 0.184-0.896 0.512-0.896 1 c0 0.4 0.2 0.8 0.6 1.051c0.429 0.3 1 0.4 1.7 0.395c0.792 0 1.418-0.152 1.879-0.457s0.692-0.72 0.692-1.245 c0-0.414-0.155-0.733-0.463-0.958c-0.309-0.225-0.746-0.333-1.315-0.328H78.54h-0.097c-0.338 0-0.554-0.008-0.649-0.026 c-0.285-0.046-0.427-0.169-0.427-0.367c0-0.081 0.045-0.156 0.134-0.227l0.045 0.018c0.325 0.1 0.6 0.2 0.9 0.2 c0.575 0 1.039-0.138 1.392-0.416c0.353-0.277 0.529-0.644 0.529-1.099c0-0.604-0.283-1.005-0.851-1.206 c-0.006-0.018-0.009-0.047-0.009-0.089c0-0.171 0.062-0.257 0.186-0.257c0.053 0 0.1 0 0.1 0.062l0.089 0.1 c0.077 0.1 0.2 0.2 0.4 0.186c0.147 0 0.271-0.05 0.368-0.151c0.098-0.1 0.146-0.224 0.146-0.372 c0-0.218-0.094-0.398-0.279-0.541c-0.187-0.141-0.418-0.212-0.697-0.212c-0.342 0-0.61 0.082-0.805 0.2 c-0.195 0.165-0.297 0.396-0.303 0.691h-0.337C77.878 1.5 77.4 1.7 77.1 1.9 M70.904 1.6 c-0.065 0-0.165 0.012-0.301 0.036c-0.136 0.023-0.239 0.035-0.31 0.035c-0.096 0-0.195-0.012-0.303-0.035 c-0.105-0.024-0.189-0.036-0.248-0.036c-0.148 0-0.27 0.057-0.363 0.169c-0.095 0.112-0.142 0.257-0.142 0.4 c0 0.3 0.1 0.5 0.4 0.488c0.036 0 0.088-0.01 0.155-0.031c0.067-0.021 0.114-0.03 0.138-0.03 c0.1 0 0.2 0.2 0.2 0.505v1.436c0 0.331-0.052 0.497-0.151 0.497c-0.029 0-0.074-0.011-0.133-0.031s-0.113-0.03-0.16-0.03 c-0.283 0-0.425 0.165-0.425 0.496c0 0.4 0.2 0.6 0.5 0.594c0.065 0 0.24-0.016 0.523-0.044 c0.172-0.019 0.37-0.027 0.594-0.027c0.226 0 0.4 0 0.6 0.027c0.241 0 0.4 0 0.5 0 c0.166 0 0.305-0.059 0.42-0.176c0.116-0.117 0.174-0.263 0.174-0.438c0-0.132-0.047-0.244-0.137-0.338 c-0.093-0.093-0.203-0.139-0.334-0.139c-0.047 0-0.117 0.015-0.212 0.044s-0.169 0.044-0.222 0 c-0.059 0-0.102-0.018-0.124-0.054c-0.036-0.059-0.054-0.194-0.054-0.407V4.345c0-0.438 0.054-0.824 0.16-1.161 c0.135-0.419 0.401-0.629 0.797-0.629h0.054c-0.076 0.146-0.115 0.263-0.115 0.345c0 0.2 0.1 0.3 0.2 0.4 c0.115 0.1 0.3 0.2 0.4 0.16c0.219 0 0.398-0.078 0.541-0.235c0.142-0.155 0.213-0.355 0.213-0.598 c0-0.308-0.111-0.565-0.334-0.776c-0.221-0.21-0.494-0.314-0.819-0.314c-0.468 0-0.83 0.163-1.091 0.5 c-0.112 0.142-0.209 0.362-0.293 0.665V1.924C71.179 1.7 71.1 1.6 70.9 1.6 M67.525 3.9 c0 0.851-0.274 1.276-0.825 1.276c-0.271 0-0.482-0.111-0.633-0.337c-0.15-0.224-0.227-0.538-0.227-0.939 c0-0.396 0.076-0.707 0.227-0.936c0.15-0.227 0.355-0.341 0.615-0.341C67.244 2.6 67.5 3 67.5 3.9 M68.363 5.6 c0.394-0.425 0.589-1.016 0.589-1.772c0-0.722-0.201-1.288-0.607-1.702c-0.404-0.414-0.959-0.621-1.662-0.621 c-0.715 0-1.271 0.209-1.666 0.625c-0.396 0.417-0.594 0.998-0.594 1.742c0 0.8 0.2 1.3 0.6 1.7 c0.397 0.4 1 0.6 1.7 0.62C67.421 6.3 68 6 68.4 5.6 M60.964 3.601c0.032-0.03 0.104-0.045 0.215-0.045 c0.221 0 0.3 0.1 0.3 0.222v0.098v0.044v0.054c0 0.3 0.2 0.5 0.5 0.497c0.307 0 0.461-0.182 0.461-0.541 c0-0.118-0.013-0.298-0.036-0.537S62.37 3 62.4 2.855c0-0.207 0.006-0.375 0.018-0.505s0.018-0.226 0.018-0.284 c0-0.307-0.161-0.461-0.482-0.461c-0.274 0-0.412 0.115-0.412 0.346v0.062v0.07v0.168c0 0.172-0.121 0.258-0.362 0.3 c-0.155 0-0.231-0.092-0.231-0.274V1.818c0-0.248 0.03-0.4 0.092-0.457c0.062-0.056 0.209-0.084 0.439-0.084h0.966 c0.296 0 0.4 0.1 0.4 0.3c0 0.065-0.009 0.156-0.026 0.273c-0.023 0.159-0.035 0.271-0.035 0.3 c0 0.2 0.1 0.4 0.2 0.52c0.117 0.1 0.3 0.2 0.5 0.194c0.2 0 0.362-0.064 0.487-0.194 c0.123-0.13 0.186-0.297 0.186-0.504c0-0.094-0.016-0.231-0.048-0.415c-0.033-0.183-0.049-0.321-0.049-0.415 c0-0.124 0.019-0.283 0.058-0.477c0.026-0.13 0.039-0.248 0.039-0.354c0-0.259-0.148-0.389-0.443-0.389 c0.012 0-0.018 0.003-0.088 0.009l-0.533 0.044c-0.291 0.012-0.537 0.019-0.737 0.019c-0.497 0.006-0.829 0.012-0.994 0 c-0.249 0.006-0.474 0.009-0.675 0.009c-0.29 0-0.663-0.018-1.119-0.053c-0.303-0.03-0.521-0.045-0.657-0.045 c-0.438 0-0.657 0.218-0.657 0.652c0 0.2 0 0.3 0.1 0.42c0.093 0.1 0.2 0.2 0.3 0.2 c0.053 0 0.125-0.011 0.217-0.031c0.093-0.021 0.161-0.031 0.208-0.031c0.118 0 0.2 0.1 0.2 0.2 c0.012 0.1 0 0.2 0 0.362V4.38c0 0.189-0.006 0.313-0.018 0.372c-0.031 0.154-0.104 0.231-0.223 0.2 c-0.041 0-0.109-0.01-0.204-0.031c-0.094-0.021-0.165-0.031-0.212-0.031c-0.143 0-0.259 0.055-0.352 0.2 c-0.09 0.109-0.137 0.249-0.137 0.421c0 0.2 0.1 0.4 0.2 0.471s0.267 0.2 0.5 0.177c0.047 0 0.273-0.021 0.682-0.062 c0.177-0.018 0.417-0.026 0.718-0.026c0.154 0 0.4 0 0.7 0.045c0.306 0 0.5 0 0.7 0 c0.201 0 0.362-0.058 0.482-0.173c0.123-0.115 0.183-0.268 0.183-0.456c0-0.402-0.175-0.604-0.526-0.604 c-0.065 0-0.16 0.011-0.285 0.031c-0.125 0.021-0.221 0.031-0.285 0.031c-0.131 0-0.213-0.05-0.241-0.151 c-0.019-0.053-0.026-0.127-0.026-0.222V4.31V3.795C60.917 3.7 60.9 3.6 61 3.6 M55.003 6.1 c0.106-0.109 0.159-0.24 0.159-0.395s-0.053-0.285-0.159-0.395s-0.236-0.164-0.39-0.164s-0.284 0.055-0.39 0.2 c-0.107 0.109-0.16 0.24-0.16 0.395s0.053 0.3 0.2 0.395c0.105 0.1 0.2 0.2 0.4 0.164S54.896 6.2 55 6.1 M50.181 1.911c-0.312 0.257-0.468 0.593-0.468 1.006c0 0.4 0.2 0.7 0.5 0.918c0.318 0.2 0.8 0.3 1.4 0.4 c0.637 0.1 1 0.3 1 0.7c0 0.225-0.096 0.411-0.285 0.559c-0.188 0.147-0.428 0.221-0.718 0.2 c-0.401 0-0.733-0.079-0.993-0.238c-0.26-0.16-0.393-0.366-0.398-0.621c-0.006-0.254-0.025-0.41-0.057-0.47 c-0.033-0.06-0.111-0.089-0.235-0.089c-0.189 0-0.284 0.104-0.284 0.311c0 0.1 0 0.2 0 0.3 c0.023 0.1 0 0.3 0 0.399c0 0.081-0.006 0.164-0.018 0.247c-0.035 0.35-0.053 0.503-0.053 0.5 c0 0.2 0.1 0.4 0.3 0.362c0.201 0 0.302-0.105 0.302-0.318V5.844C50.56 6.1 51 6.3 51.5 6.3 c0.525 0 0.949-0.132 1.272-0.395c0.325-0.263 0.487-0.606 0.487-1.033c0-0.696-0.504-1.113-1.512-1.25l-0.517-0.07 c-0.522-0.071-0.782-0.296-0.782-0.675c0-0.206 0.092-0.379 0.275-0.518s0.413-0.209 0.686-0.209c0.268 0 0.5 0.1 0.7 0.2 c0.199 0.1 0.3 0.3 0.3 0.457v0.292c0.007 0.2 0.1 0.3 0.3 0.283c0.191 0 0.289-0.111 0.289-0.337 c0-0.07-0.008-0.174-0.023-0.31c-0.014-0.136-0.021-0.24-0.021-0.312c0-0.117 0.01-0.235 0.029-0.354 c0.01-0.143 0.016-0.231 0.016-0.267c0-0.188-0.099-0.283-0.293-0.283c-0.189 0-0.285 0.109-0.285 0.328v0.035 c-0.264-0.207-0.594-0.311-0.988-0.311C50.9 1.5 50.5 1.7 50.2 1.9 M46.086 2.47c0.273-0.239 0.575-0.359 0.907-0.359 c0.321 0 0.6 0.1 0.8 0.346c0.237 0.2 0.4 0.5 0.4 0.816c0 0.083-0.063 0.124-0.187 0.124h-2.127 c-0.13 0-0.195-0.041-0.195-0.124C45.677 3 45.8 2.7 46.1 2.5 M48.354 2.082c-0.361-0.371-0.819-0.557-1.374-0.557 c-0.627 0-1.135 0.225-1.525 0.674c-0.39 0.449-0.585 1.034-0.585 1.755c0 0.7 0.2 1.3 0.6 1.7 c0.366 0.4 0.9 0.6 1.5 0.625c0.497 0 0.94-0.149 1.33-0.447c0.39-0.299 0.585-0.641 0.585-1.024 c0-0.225-0.11-0.337-0.329-0.337c-0.154 0-0.252 0.071-0.293 0.213l-0.08 0.257c-0.066 0.219-0.206 0.399-0.423 0.5 c-0.216 0.143-0.454 0.213-0.715 0.213c-0.397 0-0.729-0.147-0.996-0.444c-0.267-0.297-0.4-0.669-0.4-1.114 c0-0.048 0.012-0.082 0.036-0.103c0.023-0.021 0.074-0.031 0.151-0.031h2.827c0.142 0 0.228-0.025 0.257-0.075 c0.03-0.05 0.045-0.187 0.045-0.411C48.896 2.9 48.7 2.5 48.4 2.1 M40.884 2.521c-0.024-0.077-0.035-0.137-0.035-0.178 c0-0.084 0.047-0.125 0.142-0.125c0.029 0 0.1 0 0.2 0.034c0.03 0 0.1 0 0.2 0 c0.225 0 0.337-0.095 0.337-0.284c0-0.2-0.13-0.301-0.39-0.301c-0.053 0-0.095 0.004-0.124 0.011l-0.293 0 c-0.195 0.021-0.343 0.033-0.443 0.033c-0.124 0-0.248-0.008-0.372-0.023l-0.373-0.047c-0.024-0.006-0.059-0.009-0.106-0.009 c-0.272 0-0.408 0.104-0.408 0.313c0 0.2 0.1 0.3 0.3 0.271c0.041 0 0.103-0.008 0.186-0.022 c0.082-0.015 0.144-0.021 0.186-0.021c0.112 0 0.2 0.1 0.3 0.328l1.277 3.295c0.106 0.3 0.3 0.4 0.5 0.4 c0.254 0 0.435-0.136 0.541-0.407l1.25-3.199c0.112-0.284 0.222-0.426 0.328-0.426c0.035 0 0.1 0 0.2 0 c0.03 0 0.1 0 0.1 0.019c0.207 0 0.31-0.098 0.31-0.292c0-0.195-0.127-0.293-0.381-0.293 c-0.071 0-0.189 0.01-0.355 0.029c-0.272 0.033-0.467 0.05-0.585 0.05c-0.088 0-0.174-0.009-0.257-0.026l-0.372-0.045 c-0.018 0-0.042-0.003-0.071-0.008h-0.071c-0.284 0-0.426 0.1-0.426 0.301c0 0.2 0.1 0.3 0.3 0.3 c0.047 0 0.117-0.008 0.208-0.022c0.092-0.015 0.161-0.021 0.209-0.021c0.124 0 0.2 0.1 0.2 0.2 c0 0.047-0.03 0.154-0.089 0.319l-1.002 2.766l-1.037-2.781L40.884 2.521z M38.309 1.069c0.097-0.098 0.146-0.214 0.146-0.35 c0-0.137-0.049-0.252-0.146-0.347c-0.098-0.095-0.215-0.142-0.35-0.142c-0.136 0-0.253 0.047-0.351 0.1 c-0.097 0.095-0.146 0.21-0.146 0.347c0 0.1 0 0.3 0.1 0.35c0.098 0.1 0.2 0.1 0.4 0.1 C38.094 1.2 38.2 1.2 38.3 1.1 M38.427 2.793c0.004-0.318 0.009-0.502 0.014-0.55c0-0.022 0.002-0.059 0.007-0.105 c0.005-0.048 0.007-0.083 0.007-0.106c0-0.23-0.086-0.346-0.257-0.346c-0.047 0-0.12 0.007-0.217 0 c-0.098 0.016-0.17 0.022-0.217 0.022c-0.054 0-0.175-0.012-0.364-0.035c-0.047-0.006-0.127-0.009-0.239-0.009 c-0.26 0-0.39 0.1-0.39 0.301c0 0.2 0.1 0.3 0.3 0.284c0.041 0 0.106-0.01 0.192-0.031 c0.086-0.021 0.154-0.031 0.201-0.031c0.149 0 0.2 0.2 0.3 0.559v0.771v0.728v0.771c-0.03 0.378-0.117 0.567-0.26 0.6 c-0.048 0-0.118-0.007-0.21-0.022c-0.093-0.015-0.162-0.021-0.21-0.021c-0.203 0-0.304 0.096-0.304 0.3 c0 0.2 0.1 0.3 0.4 0.297c0.077 0 0.231-0.016 0.462-0.044c0.19-0.024 0.362-0.036 0.516-0.036 c0.095 0 0.2 0 0.4 0.04c0.192 0 0.3 0 0.4 0.04c0.113 0 0.206-0.029 0.28-0.087 c0.074-0.059 0.111-0.128 0.111-0.21c0-0.192-0.112-0.288-0.337-0.288c-0.059 0-0.103 0.005-0.133 0 c-0.118 0.026-0.192 0.038-0.221 0.038c-0.13 0-0.21-0.133-0.24-0.399C38.423 5.2 38.4 5 38.4 4.69V3.538 C38.42 3.3 38.4 3 38.4 2.8 M35.502 0.471c0.006-0.029 0.009-0.074 0.009-0.134c0-0.171-0.068-0.257-0.204-0.257 c-0.059 0-0.148 0.011-0.266 0.031c-0.118 0.021-0.207 0.031-0.266 0.031c-0.065 0-0.145-0.006-0.239-0.021l-0.213-0.031 C34.276 0.1 34.2 0.1 34.2 0.08c-0.237 0-0.355 0.1-0.355 0.297c0 0.2 0.1 0.3 0.3 0.3 c0.042 0 0.095-0.005 0.16-0.017c0.136-0.024 0.213-0.036 0.23-0.036c0.125 0 0.2 0.1 0.2 0.2 c0.011 0.1 0 0.2 0 0.355v1.583v1.38l-0.009 0.623c-0.006 0.386-0.022 0.623-0.049 0.7 c-0.027 0.092-0.094 0.138-0.201 0.138c-0.024 0-0.111-0.014-0.26-0.042c-0.018 0-0.044-0.004-0.08-0.011h-0.063 c-0.203 0-0.304 0.09-0.304 0.271c0 0.2 0.1 0.3 0.4 0.314h0.044c0.089 0 0.227-0.013 0.415-0.035 c0.189-0.024 0.33-0.036 0.424-0.036c0.112 0 0.3 0 0.5 0.036c0.207 0 0.4 0 0.5 0 c0.242 0 0.362-0.097 0.362-0.288c0-0.198-0.098-0.297-0.295-0.297c-0.024 0-0.072 0.005-0.143 0 c-0.114 0.026-0.188 0.038-0.224 0.038c-0.155 0-0.236-0.151-0.242-0.452V2.403C35.44 1.6 35.5 0.9 35.5 0.5 M28.367 2.47C28.64 2.2 28.9 2.1 29.3 2.11c0.32 0 0.6 0.1 0.8 0.346c0.237 0.2 0.4 0.5 0.4 0.8 c0 0.083-0.063 0.124-0.187 0.124h-2.126c-0.131 0-0.196-0.041-0.196-0.124C27.958 3 28.1 2.7 28.4 2.5 M30.635 2.1 c-0.36-0.371-0.819-0.557-1.374-0.557c-0.627 0-1.135 0.225-1.525 0.674s-0.585 1.034-0.585 1.8 c0 0.7 0.2 1.3 0.6 1.681c0.366 0.4 0.9 0.6 1.5 0.625c0.497 0 0.94-0.149 1.33-0.447 c0.39-0.299 0.585-0.641 0.585-1.024c0-0.225-0.11-0.337-0.329-0.337c-0.154 0-0.252 0.071-0.293 0.213l-0.08 0.3 c-0.065 0.219-0.206 0.399-0.423 0.54c-0.216 0.143-0.454 0.213-0.715 0.213c-0.397 0-0.729-0.147-0.996-0.444 c-0.266-0.297-0.4-0.669-0.4-1.114c0-0.048 0.012-0.082 0.036-0.103c0.023-0.021 0.074-0.031 0.151-0.031h2.827 c0.142 0 0.228-0.025 0.257-0.075c0.03-0.05 0.045-0.187 0.045-0.411C31.176 2.9 31 2.5 30.6 2.1 M25.731 5.8 c0.261 0.1 0.4 0.3 0.4 0.58c0 0.236-0.138 0.427-0.414 0.568c-0.275 0.141-0.65 0.212-1.125 0.2 c-0.45 0-0.809-0.068-1.075-0.208c-0.267-0.139-0.4-0.33-0.4-0.572c0-0.241 0.136-0.434 0.408-0.575 c0.273-0.143 0.647-0.213 1.121-0.213C25.106 5.6 25.5 5.6 25.7 5.8 M25.343 2.359c0.189 0.2 0.3 0.4 0.3 0.6 c0 0.248-0.093 0.452-0.279 0.612c-0.186 0.159-0.427 0.238-0.722 0.238c-0.284 0-0.515-0.079-0.692-0.238 c-0.177-0.16-0.266-0.37-0.266-0.63V2.917c0.018-0.229 0.118-0.422 0.301-0.576c0.184-0.153 0.405-0.23 0.665-0.23 C24.917 2.1 25.2 2.2 25.3 2.4 M23.441 1.924c-0.31 0.267-0.465 0.601-0.465 1.003c0 0.3 0.1 0.5 0.2 0.7 C22.715 3.8 22.5 4.1 22.5 4.504c0 0.4 0.2 0.7 0.7 0.852c-0.538 0.201-0.807 0.541-0.807 1 c0 0.4 0.2 0.7 0.6 0.976c0.387 0.2 0.9 0.4 1.6 0.354c0.68 0 1.219-0.125 1.618-0.375 c0.399-0.251 0.599-0.591 0.599-1.021c0-0.266-0.096-0.503-0.286-0.715c-0.19-0.214-0.448-0.369-0.775-0.47 c-0.35-0.105-0.807-0.159-1.371-0.159h-0.107h-0.161h-0.053c-0.624 0-0.935-0.153-0.935-0.461c0-0.1 0.032-0.188 0.098-0.262 c0.065-0.073 0.139-0.11 0.223-0.11c0.065 0 0.1 0 0.2 0.062c0.351 0.2 0.7 0.2 1 0.2 c0.464 0 0.85-0.136 1.159-0.407s0.464-0.611 0.464-1.02c0-0.508-0.225-0.913-0.674-1.215c0.006-0.39 0.166-0.585 0.479-0.585 c0.148 0 0.3 0.1 0.4 0.178c-0.13 0.101-0.195 0.198-0.195 0.292c0 0.1 0 0.2 0.1 0.2 c0.071 0.1 0.2 0.1 0.2 0.097c0.124 0 0.232-0.05 0.324-0.15c0.091-0.101 0.137-0.222 0.137-0.363 c0-0.219-0.092-0.399-0.275-0.541c-0.183-0.143-0.411-0.213-0.683-0.213c-0.644 0-0.981 0.29-1.01 0.9 c-0.195-0.048-0.37-0.071-0.523-0.071C24.14 1.5 23.8 1.7 23.4 1.9 M17.784 1.677c-0.006 0-0.086 0.007-0.239 0 c-0.071 0.015-0.154 0.022-0.248 0.022l-0.328-0.035c-0.024-0.006-0.054-0.009-0.089-0.009c-0.266 0-0.399 0.099-0.399 0.3 c0 0.2 0.1 0.3 0.3 0.288c0.042 0 0.104-0.01 0.185-0.026c0.081-0.018 0.143-0.027 0.185-0.027 c0.096 0 0.2 0 0.2 0.111s0.065 0.2 0.1 0.412v0.31v1.073v0.984c-0.006 0.343-0.099 0.514-0.28 0.5 c-0.078 0-0.158-0.009-0.239-0.026C16.856 5.6 16.8 5.6 16.8 5.56c-0.193 0-0.289 0.095-0.289 0.3 c0 0.2 0.1 0.3 0.4 0.301c0.036 0 0.183-0.016 0.444-0.044c0.206-0.024 0.372-0.036 0.496-0.036 c0.16 0 0.3 0 0.4 0.026c0.26 0 0.4 0.1 0.5 0.054c0.237 0 0.355-0.097 0.355-0.288 c0-0.198-0.092-0.297-0.275-0.297c-0.053 0-0.121 0.01-0.204 0.03c-0.083 0.021-0.148 0.031-0.195 0 c-0.094 0-0.159-0.047-0.195-0.142c-0.035-0.094-0.053-0.272-0.053-0.532V3.769c0-0.556 0.071-0.948 0.212-1.18 c0.206-0.337 0.544-0.505 1.016-0.505c0.247 0 0.5 0.1 0.7 0.204c0.176 0.1 0.3 0.3 0.3 0.5 c0.03 0.1 0 0.3 0 0.646v0.674v0.54v0.453c-0.012 0.325-0.09 0.487-0.235 0.487c-0.03 0-0.102-0.012-0.217-0.035 c-0.06-0.012-0.114-0.018-0.162-0.018c-0.205 0-0.308 0.092-0.308 0.274c0 0.2 0.1 0.3 0.4 0.3 c0.018 0 0.174-0.019 0.47-0.054c0.1-0.012 0.227-0.018 0.381-0.018c0.165 0 0.3 0 0.5 0 c0.189 0 0.3 0 0.4 0.035c0.1 0 0.186-0.03 0.257-0.089c0.071-0.06 0.106-0.134 0.106-0.222 c0-0.077-0.028-0.142-0.084-0.194c-0.056-0.054-0.123-0.08-0.199-0.08c-0.036 0-0.097 0.007-0.182 0 c-0.086 0.016-0.155 0.022-0.209 0.022c-0.13 0-0.209-0.101-0.239-0.301c-0.006-0.048-0.009-0.198-0.009-0.452V3.165 c0-0.325-0.041-0.588-0.124-0.789c-0.1-0.241-0.292-0.443-0.576-0.606c-0.284-0.162-0.585-0.244-0.904-0.244 c-0.591 0-1.064 0.225-1.419 0.674V1.947C18.042 1.8 18 1.7 17.8 1.7 M13.89 5.4 c-0.228 0.215-0.54 0.322-0.936 0.322c-0.278 0-0.498-0.064-0.66-0.194c-0.163-0.13-0.244-0.308-0.244-0.532 c0-0.431 0.336-0.679 1.007-0.744c0.37-0.036 0.628-0.077 0.772-0.125c0.144-0.047 0.281-0.129 0.411-0.248v0.63 C14.234 4.8 14.1 5.1 13.9 5.4 M16.137 5.373V4.868V4.823c0-0.284-0.096-0.425-0.288-0.425 c-0.18 0-0.271 0.094-0.271 0.281v0.432c0 0.375-0.103 0.562-0.31 0.562c-0.165 0-0.266-0.103-0.301-0.309 c-0.012-0.053-0.018-0.221-0.018-0.505V3.073c0-1.032-0.538-1.548-1.613-1.548c-0.467 0-0.865 0.119-1.193 0.4 c-0.328 0.236-0.492 0.521-0.492 0.852c0 0.2 0.1 0.3 0.2 0.39c0.104 0.1 0.2 0.2 0.4 0.2 c0.13 0 0.238-0.039 0.324-0.116c0.085-0.076 0.128-0.174 0.128-0.292c0-0.142-0.041-0.242-0.124-0.302 c-0.053-0.035-0.08-0.065-0.08-0.088c0-0.065 0.044-0.127 0.133-0.187c0.231-0.147 0.479-0.222 0.745-0.222 c0.301 0 0.5 0.1 0.7 0.208c0.168 0.1 0.3 0.3 0.3 0.572c0 0.254-0.075 0.429-0.226 0.5 c-0.151 0.096-0.474 0.169-0.971 0.223c-0.348 0.041-0.58 0.075-0.695 0.102c-0.116 0.026-0.253 0.084-0.413 0.2 c-0.419 0.23-0.629 0.591-0.629 1.081c0 0.4 0.1 0.7 0.4 0.949c0.286 0.2 0.7 0.4 1.1 0.4 c0.644 0 1.117-0.222 1.418-0.665c0.113 0.4 0.4 0.6 0.9 0.63C15.824 6.2 16.1 5.9 16.1 5.4 M7.055 0.4 c0-0.195-0.068-0.294-0.203-0.294c-0.042 0-0.11 0.008-0.204 0.022C6.553 0.1 6.5 0.1 6.4 0.1 c-0.13 0-0.251-0.006-0.363-0.018C5.891 0.1 5.8 0.1 5.8 0.08c-0.1 0-0.186 0.03-0.257 0.1 c-0.071 0.06-0.106 0.13-0.106 0.213c0 0.2 0.1 0.3 0.3 0.283c0.047 0 0.112-0.008 0.195-0.025 C5.978 0.6 6 0.6 6.1 0.612c0.13 0 0.2 0.1 0.2 0.35c0.036 0.2 0.1 0.8 0.1 1.681v1.587 C6.376 4.8 6.4 5.2 6.3 5.333C6.291 5.5 6.2 5.6 6.1 5.604c-0.042 0-0.115-0.013-0.217-0.037 C5.876 5.6 5.8 5.5 5.7 5.541c-0.229 0-0.343 0.093-0.343 0.274c0 0.2 0.1 0.3 0.4 0.3 c0.065 0 0.217-0.013 0.455-0.035c0.178-0.019 0.318-0.027 0.419-0.027c0.161 0 0.4 0 0.6 0 C7.385 6.1 7.5 6.1 7.6 6.145c0.261 0 0.392-0.106 0.392-0.32c0-0.188-0.097-0.283-0.291-0.283 c-0.043 0-0.108 0.015-0.196 0.04c-0.089 0.027-0.157 0.04-0.206 0.04c-0.145 0-0.234-0.145-0.264-0.434 C7.023 5.1 7 4.9 7 4.603V4.434c0.024-0.083 0.035-0.143 0.035-0.178V3.617c0.006-0.483 0.083-0.836 0.232-1.054 C7.5 2.2 7.8 2.1 8.3 2.084c0.433 0 0.7 0.2 0.9 0.461C9.336 2.8 9.4 3.2 9.4 3.76v0.479v0.381 C9.384 4.8 9.4 5 9.4 5.036C9.372 5.4 9.3 5.6 9.1 5.612c-0.047 0-0.097-0.009-0.15-0.026 C8.864 5.6 8.8 5.5 8.7 5.541c-0.083 0-0.155 0.027-0.217 0.08S8.412 5.7 8.4 5.816c0 0.1 0 0.2 0.1 0.2 c0.071 0.1 0.2 0.1 0.3 0.093c0.059 0 0.213-0.019 0.461-0.054C9.328 6.1 9.4 6.1 9.6 6.1 c0.153 0 0.4 0 0.6 0.045c0.147 0 0.3 0 0.3 0.026c0.283 0 0.425-0.101 0.425-0.301 c0-0.201-0.109-0.303-0.328-0.303c-0.059 0-0.106 0.004-0.142 0.014c-0.088 0.032-0.157 0.049-0.204 0 c-0.13 0-0.207-0.147-0.23-0.443c-0.006-0.035-0.009-0.227-0.009-0.576v-1.48c0-0.473-0.154-0.854-0.462-1.144 C9.281 1.7 8.9 1.5 8.4 1.525c-0.267 0-0.498 0.043-0.694 0.129C7.473 1.7 7.3 1.9 7 2.119l0.035-1.727V0.374z M0.731 0.888C0.243 1.5 0 2.3 0 3.22C0 4.2 0.2 4.9 0.7 5.461c0.476 0.6 1.1 0.8 1.9 0.8 c0.691 0 1.256-0.201 1.693-0.604s0.656-0.919 0.656-1.552c0-0.271-0.123-0.407-0.368-0.407c-0.227 0-0.341 0.136-0.341 0.4 c0 0.291-0.036 0.522-0.106 0.695C4.052 5.1 3.9 5.3 3.6 5.479C3.343 5.6 3 5.7 2.7 5.7 c-0.607 0-1.08-0.228-1.419-0.681S0.789 4 0.8 3.144c0-0.793 0.165-1.415 0.495-1.865s0.787-0.675 1.37-0.675 c0.448 0 0.8 0.1 1.1 0.396C4.02 1.3 4.2 1.6 4.1 2.028v0.316C4.134 2.6 4.2 2.7 4.5 2.7 c0.212 0 0.319-0.134 0.319-0.399V2.235L4.76 1.898C4.743 1.7 4.7 1.6 4.7 1.41c0-0.112 0.014-0.315 0.044-0.612 C4.791 0.6 4.8 0.4 4.8 0.373C4.796 0.1 4.7 0 4.5 0C4.32 0 4.2 0.1 4.2 0.3 c0-0.013 0 0 0 0.182c0 0 0 0 0 0.063v0.1v0.1C3.85 0.3 3.3 0 2.7 0 C1.861 0 1.2 0.3 0.7 0.9" class="style0"/></g></g></g></svg>