<?xml version="1.0" encoding="UTF-8" standalone="no"?>
<svg width="46px" height="42px" viewBox="0 0 46 42" version="1.1" xmlns="http://www.w3.org/2000/svg" xmlns:xlink="http://www.w3.org/1999/xlink">
    <!-- Generator: Sketch 3.7.2 (28276) - http://www.bohemiancoding.com/sketch -->
    <title>download-svg</title>
    <desc>Created with Sketch.</desc>
    <defs></defs>
    <g id="Page-1" stroke="none" stroke-width="1" fill="none" fill-rule="evenodd">
        <g id="download" fill="#FFFFFF">
            <g id="noun_433">
                <g id="Group">
                    <path d="M31.12222,0 L0,0 L0,36.9782609 L22.97102,36.9782609 L19.64706,33.326087 L3.68,33.326087 L3.68,3.65217391 L9.2,3.65217391 L9.2,17.3478261 L26.68,17.3478261 L26.68,3.65217391 L29.59778,3.65217391 L33.58,7.60428261 L33.58,13.6956522 L37.26,13.6956522 L37.26,6.09136957 L31.12222,0 L31.12222,0 Z M23.46,13.6956522 L19.78,13.6956522 L19.78,3.65217391 L23.46,3.65217391 L23.46,13.6956522 L23.46,13.6956522 Z" id="Shape"></path>
                    <polygon id="Shape" points="37.26 27.8478261 37.26 17.3478261 28.98 17.3478261 28.98 27.8478261 20.24 27.8478261 33.12 42 46 27.8478261"></polygon>
                </g>
            </g>
        </g>
    </g>
</svg>