<svg id="Layer_1" data-name="Layer 1" xmlns="http://www.w3.org/2000/svg" width="30" height="30" xml:space="preserve" x="0px" y="0px" viewBox="0 0 30 30">
  <title>image</title>
  <g>
    <path d="M30,26.56a0.54,0.54,0,0,0,0-.06V3.5A0.5,0.5,0,0,0,29.5,3H0.5a0.5,0.5,0,0,0-.5.5v23a0.33,0.33,0,0,0,0,0,0.48,0.48,0,0,0,0,.1,0.41,0.41,0,0,0,0,.09l0.05,0.08,0.07,0.08,0,0,0,0,0.09,0,0.1,0h29a0.48,0.48,0,0,0,.23-0.06h0l0,0,0.07-.06,0.06-.08,0-.08A0.49,0.49,0,0,0,30,26.56ZM29,4V24.72L18.93,8.24A0.45,0.45,0,0,0,18.49,8a0.5,0.5,0,0,0-.43.26l-4.68,8.42L9.85,13.15a0.5,0.5,0,0,0-.76.07L1,24.9V4H29ZM28.61,26H1.45L9.57,14.28l3.58,3.58a0.5,0.5,0,0,0,.79-0.11l4.58-8.25Z" transform="translate(0 -3)" style="fill: #fff"/>
    <path d="M11,12A3,3,0,1,0,8,9,3,3,0,0,0,11,12Zm0-5A2,2,0,1,1,9,9,2,2,0,0,1,11,7Z" transform="translate(0 -3)" style="fill: #fff"/>
  </g>
</svg>
