<?xml version="1.0" encoding="utf-8"?>
<!-- Generator: Adobe Illustrator 18.1.1, SVG Export Plug-In . SVG Version: 6.00 Build 0)  -->
<svg version="1.1" id="Layer_1" xmlns="http://www.w3.org/2000/svg" xmlns:xlink="http://www.w3.org/1999/xlink" x="0px" y="0px"
	 viewBox="-384 326 30 180" enable-background="new -384 326 30 180" xml:space="preserve" width="30" height="180">
<g>
	<polygon fill="#FFFFFF" points="-377.1,388.8 -375.4,388.8 -374.2,392.8 -373.1,388.8 -371.3,388.8 -373.3,394.6 -373.3,398.7
		-375,398.7 -375,394.7 	"/>
	<path fill="#FFFFFF" d="M-366.8,393c0,0,0-1.7-2.2-1.7s-2.2,1.7-2.2,1.7v3.9c0,0,0,0.9,0.5,1.4s1,0.7,1.6,0.7s1.3-0.1,1.8-0.6
		s0.5-1.5,0.5-1.5V393z M-368.4,397.1c0,0-0.1,0.5-0.6,0.5s-0.7-0.5-0.7-0.6v-4c0,0,0-0.6,0.6-0.6s0.7,0.4,0.7,0.5V397.1z"/>
	<path fill="#FFFFFF" d="M-365.6,391.4h1.5v5.6c0,0,0,0.4,0.4,0.4c0.3,0,0.8-0.4,0.9-0.5v-5.5h1.6v7.3h-1.6v-0.8
		c0,0-0.7,0.9-1.8,0.9c-1,0-1-1.2-1-1.3V391.4z"/>
	<path fill="#FFFFFF" d="M-362.3,407.4h1.2v-0.9c0,0,0.1-0.6-0.6-0.6c-0.6,0-0.6,0.5-0.6,0.5V407.4z"/>
	<path fill="#FFFFFF" d="M-366.3,405.9c0,0-0.3,0-0.6,0.3v4.1c0,0,0.2,0.3,0.6,0.3c0.4,0,0.5-0.3,0.5-0.4v-3.7
		C-365.8,406.6-365.8,405.9-366.3,405.9"/>
	<path fill="#FFFFFF" d="M-360.2,400.9h-17.2c-2.6,0-4.8,2.1-4.8,4.7v3.9c0,2.6,2.1,4.8,4.8,4.8h17.2c2.6,0,4.8-2.1,4.8-4.8v-3.9
		C-355.5,403-357.6,400.9-360.2,400.9 M-373.7,404h-1.6v7.6h-1.5V404h-1.5v-1.3h4.6C-373.7,402.7-373.7,404-373.7,404z
		 M-369.3,411.6h-1.3v-0.7c0,0-0.9,0.8-1.6,0.8c-0.7,0-0.9-0.7-0.9-1V405h1.3v5.1c0,0,0,0.4,0.3,0.4c0.4,0,0.8-0.5,0.8-0.5v-5h1.3
		v6.6H-369.3z M-364.4,410.4c0,0,0,1.3-1.2,1.3c0,0-0.7,0-1.3-0.6v0.5h-1.4v-8.9h1.4v2.9c0,0,0.4-0.6,1.3-0.6s1.2,0.9,1.2,1.6V410.4
		z M-361.8,411.8c-1.8,0-1.9-1.8-1.9-1.8v-3.1c0-0.3,0.1-2,2.1-2c1.9,0,1.8,2,1.8,2v1.6h-2.5v1.5c0,0.8,0.6,0.7,0.6,0.7
		c0.9,0,0.6-1.2,0.6-1.2h1.3C-359.8,410.6-360,411.8-361.8,411.8"/>
</g>
<path fill="#FFFFFF" d="M-355.7,326h-26.6c-1,0-1.7,0.7-1.7,1.7v26.7c0,0.9,0.7,1.6,1.7,1.6h14.3v-11.6h-3.9v-4.5h3.9v-3.3
	c0-3.9,2.4-6,5.8-6c1.7,0,3.1,0.1,3.5,0.2v4h-2.4c-1.9,0-2.2,0.9-2.2,2.2v2.9h4.5l-0.6,4.5h-3.9V356h7.6c0.9,0,1.7-0.7,1.7-1.7
	v-26.6C-354,326.7-354.7,326-355.7,326z"/>
<g>
	<path fill="#FFFFFF" d="M-357.2,356h-23.6c-1.8,0-3.2,1.4-3.2,3.2v23.5c0,1.9,1.4,3.3,3.2,3.3h23.5c1.8,0,3.2-1.4,3.2-3.2v-23.6
		C-354,357.4-355.4,356-357.2,356 M-374.4,368.1c0.1-0.2,0.3-0.5,0.4-0.7l0,0c0.1-0.2,0.2-0.3,0.4-0.5l0,0c0.1-0.1,0.3-0.3,0.4-0.4
		l0,0l0.1-0.1l0,0c0.1-0.1,0.2-0.1,0.2-0.2c0,0,0,0,0.1,0l0.1-0.1c0,0,0.1,0,0.1-0.1c0.1,0,0.1-0.1,0.2-0.1l0.1-0.1
		c0,0,0.1,0,0.1-0.1c0,0,0.1,0,0.1-0.1c0,0,0.1,0,0.1-0.1c0.1,0,0.1-0.1,0.2-0.1h0.1c0,0,0.1,0,0.2-0.1h0.1c0.1,0,0.1-0.1,0.2-0.1
		h0.1c0.1,0,0.1,0,0.2-0.1h0.1c0.1,0,0.1,0,0.2-0.1c0,0,0,0,0.1,0s0.2,0,0.3-0.1c0,0,0,0,0.1,0s0.1,0,0.2,0c0,0,0,0,0.1,0
		s0.2,0,0.3,0l0,0c0.1,0,0.2,0,0.2,0h0.1c0.1,0,0.2,0,0.3,0s0.2,0,0.3,0h0.1c0.1,0,0.2,0,0.2,0s0,0,0.1,0c0.1,0,0.2,0,0.3,0
		c0,0,0,0,0.1,0s0.1,0,0.2,0c0,0,0,0,0.1,0s0.2,0,0.3,0.1h0.1c0.1,0,0.1,0,0.2,0.1h0.1c0.1,0,0.1,0,0.2,0.1h0.1c0.1,0,0.1,0,0.2,0.1
		h0.1c0,0,0.1,0,0.2,0.1h0.1c0.1,0,0.1,0.1,0.2,0.1c0,0,0.1,0,0.1,0.1c0,0,0.1,0,0.1,0.1c0,0,0.1,0,0.1,0.1l0.1,0.1
		c0.1,0,0.1,0.1,0.2,0.1c0,0,0.1,0,0.1,0.1l0.1,0.1c0,0,0,0,0.1,0c0.1,0.1,0.2,0.1,0.2,0.2l0,0l0.1,0.1l0,0c0.1,0.1,0.3,0.3,0.4,0.4
		l0,0c0.1,0.1,0.2,0.3,0.4,0.5l0,0c0.2,0.2,0.3,0.5,0.4,0.7c0.4,0.8,0.7,1.8,0.7,2.8c0,3.4-2.7,6.1-6.1,6.1s-6.1-2.7-6.1-6.1
		C-375.1,369.9-374.9,369-374.4,368.1 M-357.5,380.6c0,1.1-0.9,1.9-1.9,1.9h-19.2c-1.1,0-1.9-0.9-1.9-1.9v-12.5h2.6
		c-0.3,0.9-0.4,1.9-0.4,2.8c0,5.2,4.2,9.3,9.3,9.3c5.2,0,9.3-4.2,9.3-9.3c0-1-0.2-1.9-0.4-2.8h2.6V380.6z M-357.4,363.3
		c0,0.8-0.7,1.5-1.5,1.5h-2.4c-0.8,0-1.5-0.7-1.5-1.5v-2.4c0-0.8,0.7-1.5,1.5-1.5h2.4c0.8,0,1.5,0.7,1.5,1.5V363.3z"/>
</g>
<g>
	<path fill="#FFFFFF" d="M-368.6,431.3c-0.6-0.7-0.2-1.7,0.3-2.2s1.3-1.1,1.7-1.5s1.4-1.2,1.4-3.8c0,0,0.2-2.3-2.3-4.2h2l2.1-1.2
		h-7.2c0,0-4.3-0.1-6.3,2.5c-2.1,2.6-2,5.9,0.2,7.7c2.2,1.8,4.9,1.3,4.9,1.3s-0.4,0.9-0.3,1.6c0.1,0.7,0.9,1.7,1,2
		c0,0-4.9,0-7.3,2.1s-2.6,6.4,2.1,7.8c4.7,1.4,10.9-0.1,12.1-4.7c0,0,0.5-1.9-0.4-3.5S-368,432-368.6,431.3 M-373.8,427.5
		c-1.5-2.1-2.7-6.1,0-7.8c0,0,2-1.2,3.7,0.5c1.7,1.7,2.2,4.7,1.9,6.2c-0.3,1.5-1.2,1.8-1.5,2.1
		C-370.1,428.8-372.3,429.6-373.8,427.5 M-366.3,438.8c-0.1,0.8-0.2,2.6-3.1,3.4c-2.9,0.8-7.8-0.5-7.7-3.9c0,0,0-1.4,0.9-2.2
		c0.9-0.8,2.2-1.6,6.2-1.7c0,0,1.3,1,2.2,1.7C-366.9,436.7-366.2,438-366.3,438.8"/>
	<polygon fill="#FFFFFF" points="-359.8,429.1 -359.8,426.5 -361.3,426.5 -361.3,429.1 -363.9,429.1 -363.9,430.6 -361.3,430.6
		-361.3,433.2 -359.8,433.2 -359.8,430.6 -357.2,430.6 -357.2,429.1 	"/>
</g>
<path fill="#FFFFFF" d="M-381.2,450.8c0,0,4.3,5.7,11.8,6.1c0,0-1-3.4,2.1-6c3.1-2.6,7-0.4,7.7,0.6c0,0,2.2-0.3,3.7-1.4
	c0,0-0.5,2-2.3,3.2c0,0,2.2-0.3,3.2-0.9c0,0-1.1,1.7-2.9,3c0,0,0.8,7.1-5.4,13c-6.1,5.9-16.2,4.7-19.9,1.6c0,0,4.9,0.6,8.4-2.4
	c0,0-4.1-0.1-5.3-3.9c0,0,2.1,0.2,2.4-0.2c0,0-4.4-1.1-4.5-5.7c0,0,1.3,0.7,2.6,0.7C-379.5,458.5-383.8,455.4-381.2,450.8"/>
<g>
	<g>
		<g>
			<path id="SVGID_1_" fill="#FFFFFF" d="M-377.1,486.9h4.6v-4.2c0,0-0.2-2.8,2-4.9c2.2-2.1,5-1.9,9.2-1.6v4.7h-3.1
				c0,0-1.3,0-1.9,0.7c-0.6,0.7-0.5,1.7-0.5,1.9v3.5h5.2l-0.7,5.3h-4.6V506h-5.6v-13.7h-4.6V486.9z"/>
		</g>
		<g>
			<defs>
				<path id="SVGID_3_" d="M-377.1,486.9h4.6v-4.2c0,0-0.2-2.8,2-4.9c2.2-2.1,5-1.9,9.2-1.6v4.7h-3.1c0,0-1.3,0-1.9,0.7
					c-0.6,0.7-0.5,1.7-0.5,1.9v3.5h5.2l-0.7,5.3h-4.6V506h-5.6v-13.7h-4.6V486.9z"/>
			</defs>
			<clipPath id="SVGID_2_">
				<use xlink:href="#SVGID_3_"  overflow="visible"/>
			</clipPath>
			<rect x="-382" y="471" clip-path="url(#SVGID_2_)" fill="#FFFFFF" width="25.7" height="39.9"/>
		</g>
	</g>
</g>
</svg>
