<svg id="Layer_1" data-name="Layer 1" xmlns="http://www.w3.org/2000/svg" width="30" height="30" viewBox="0 0 30 30" xml:space="preserve" x="0px" y="0px">
  <title>video</title>
  <g>
    <path d="M11.78,8.58A0.5,0.5,0,0,0,11,9V21a0.5,0.5,0,0,0,.78.42l9-6a0.5,0.5,0,0,0,0-.83ZM12,20.07V9.94L19.6,15Z" transform="translate(0 -2.5)" style="fill: #fff"/>
    <path d="M23.5,2.5H6.5A6.51,6.51,0,0,0,0,9V21a6.51,6.51,0,0,0,6.5,6.5h17A6.51,6.51,0,0,0,30,21V9A6.51,6.51,0,0,0,23.5,2.5ZM29,21a5.51,5.51,0,0,1-5.5,5.5H6.5A5.51,5.51,0,0,1,1,21V9A5.51,5.51,0,0,1,6.5,3.5h17A5.51,5.51,0,0,1,29,9V21Z" transform="translate(0 -2.5)" style="fill: #fff"/>
  </g>
</svg>
